<?xml version="1.0" encoding="UTF-8"?>
<!DOCTYPE svg PUBLIC "-//W3C//DTD SVG 1.1//EN" "http://www.w3.org/Graphics/SVG/1.1/DTD/svg11.dtd">
<!-- Creator: CorelDRAW X7 -->
<svg xmlns="http://www.w3.org/2000/svg" xml:space="preserve" width="188.148mm" height="188.148mm" version="1.1" style="shape-rendering:geometricPrecision; text-rendering:geometricPrecision; image-rendering:optimizeQuality; fill-rule:evenodd; clip-rule:evenodd"
viewBox="0 0 18815 18815"
 xmlns:xlink="http://www.w3.org/1999/xlink">
 <defs>
  <style type="text/css">
   <![CDATA[
    .fil1 {fill:#006633}
    .fil0 {fill:lime}
    .fil2 {fill:white}
   ]]>
  </style>
 </defs>
 <g id="Layer_x0020_1">
  <metadata id="CorelCorpID_0Corel-Layer"/>
  <g id="_3210379541856">
   <rect class="fil0" width="18815" height="18815"/>
   <path class="fil1" d="M12446 11147c230,-403 601,-689 1166,-689 80,0 161,17 237,46l11 -51 1044 0 -405 1910c-7,39 -17,88 -17,127 0,6 0,18 2,26 20,11 79,13 98,13 29,0 69,-17 103,-36l626 -2937 1076 -146 -246 1155c140,-67 289,-112 440,-112 401,0 738,413 738,799 0,51 -1,99 -14,148l-208 968c-11,46 -35,121 -37,169 14,2 31,2 39,2 19,0 60,1 78,-5l299 -112 -99 304c-58,180 -151,368 -313,477 -112,75 -229,96 -361,96 -435,0 -672,-294 -672,-712 0,-97 13,-194 35,-287l191 -907c4,-30 8,-60 8,-90 0,-45 -10,-161 -74,-161 -72,0 -127,17 -182,50l-450 2107 -1046 0 17 -81c-100,48 -205,81 -309,81 -262,0 -508,-73 -654,-262 -154,152 -341,262 -560,287l33 1c1150,19 2302,129 3435,336 149,27 298,54 445,90 150,37 296,83 442,132l879 297 -928 3c-307,1 -596,-23 -901,-49 -1538,-128 -3090,-150 -4629,-33 -3635,278 -7218,1346 -10018,3762 -218,188 -549,168 -739,-49 -190,-217 -168,-550 49,-739l2 -2 2 -1c2379,-1962 5402,-3078 8429,-3522 1083,-159 2180,-234 3275,-228 -413,-52 -654,-355 -654,-791 0,-54 1,-108 3,-162 -253,520 -664,930 -1260,930 -291,0 -551,-89 -686,-314 -195,158 -437,314 -659,314 -263,0 -514,-74 -660,-271 -178,139 -396,271 -604,271 -263,0 -508,-73 -655,-262 -175,173 -394,293 -655,293 -462,0 -748,-283 -780,-717 -32,63 -70,124 -115,181 -295,384 -773,530 -1241,530 -206,0 -420,-20 -616,-84 -418,-134 -660,-435 -660,-887 0,-525 385,-885 900,-885 267,0 499,99 562,380l38 172 -176 15c-126,11 -299,40 -383,147 -57,71 -70,170 -70,258 0,209 145,333 349,333 318,0 404,-304 404,-572 0,-871 -1096,-1073 -1096,-1918 0,-87 13,-172 38,-255 166,-538 793,-843 1324,-843 184,0 377,19 550,87 296,118 456,353 456,676 0,346 -201,666 -575,666 -136,0 -256,-57 -345,-160l-120 -139 158 -94c94,-56 153,-198 153,-304 0,-139 -83,-186 -216,-186 -189,0 -318,90 -318,288 0,105 24,199 77,291 62,109 157,202 250,286 117,106 239,205 351,317 225,224 368,460 430,743 178,-649 589,-1198 1372,-1198 79,0 160,17 236,46l12 -51 1043 0 -404 1910c-7,39 -18,88 -18,127 0,6 1,18 3,26 20,11 78,13 97,13 34,0 80,-22 121,-46 5,-61 15,-122 28,-182l391 -1848 1046 0 -404 1910c-8,39 -18,88 -18,127 0,6 1,18 2,26 21,11 79,13 98,13 57,0 144,-55 206,-102 5,-43 14,-87 25,-129l390 -1845 1046 0 -405 1912c-10,49 -22,105 -22,156 0,1 0,3 0,5 13,3 31,3 39,3 9,0 19,-1 28,-2 253,-39 455,-554 521,-761 56,-175 106,-382 125,-577 -206,-31 -310,-232 -310,-434 0,-226 227,-403 443,-403 343,0 479,310 479,611 0,59 -2,121 -6,184zm-9484 -132l-93 9c-44,38 -84,95 -104,125 -95,145 -165,327 -216,491 -6,17 -11,33 -16,50 96,-34 183,-91 256,-166 104,-107 182,-259 184,-411 0,-18 -3,-65 -11,-98zm-1167 -42c-142,-46 -277,-110 -402,-192 -306,-199 -542,-506 -664,-851 -70,-199 -107,-410 -102,-622 3,-117 19,-233 51,-346 14,-52 32,-101 49,-152l2 -5 2 -5c20,-50 37,-100 60,-149 44,-104 98,-204 156,-301l2 -2c62,-101 132,-197 209,-287 162,-185 356,-345 571,-464 218,-121 453,-209 695,-266 240,-56 487,-86 734,-93 486,-14 973,46 1449,142 466,94 922,231 1373,379 358,118 717,234 1080,336l24 -39 130 76c6,4 13,7 19,11 6,2 11,3 17,5 202,53 406,101 610,144 195,41 392,76 589,105 187,26 375,46 563,61 176,15 352,24 529,28 163,4 326,1 488,-4 148,-4 295,-11 442,-23 240,-18 479,-46 717,-80 88,-13 177,-27 265,-41 65,-11 130,-22 195,-34 56,-10 111,-21 166,-30l123 -23c-114,-65 -223,-141 -313,-212 -176,33 -353,61 -530,86 -166,38 -332,74 -500,101 -269,45 -538,81 -811,98 -323,21 -647,26 -970,6 -361,-23 -721,-68 -1075,-137 -377,-73 -749,-171 -1115,-283 -371,-113 -738,-240 -1106,-360 -356,-116 -715,-227 -1081,-305 -175,-37 -352,-67 -529,-86 -86,-10 -173,-16 -260,-20l-64 -4 -99 -2 -97 -1c-329,-1 -660,28 -982,93 -277,56 -549,154 -794,297 -203,118 -383,276 -529,460 -62,79 -118,162 -168,248 -42,76 -83,153 -118,232 -49,114 -94,231 -129,350 -13,43 -25,87 -38,131l-38 138 -280 -55 17 -142c2,-13 3,-25 5,-38 5,-36 9,-72 15,-107 23,-139 53,-274 95,-408 65,-213 160,-416 280,-604 159,-248 376,-462 616,-630 280,-196 609,-330 938,-417 177,-47 358,-79 539,-103 185,-24 371,-37 557,-43l58 -6 45 -8 125 0 75 8c98,3 195,13 292,22 200,19 398,51 594,91 389,81 771,197 1148,323 365,121 728,251 1094,370 329,107 661,205 998,284 894,-155 1721,-442 2525,-861 24,-194 64,-442 158,-590 157,-247 313,-370 589,-479l94 -37c119,-213 257,-338 492,-461l89 -47c96,-225 220,-364 440,-512l84 -56c72,-235 180,-387 383,-559l79 -66c46,-242 138,-406 321,-600l71 -76c20,-248 94,-422 256,-637l142 -189c25,-114 73,-221 148,-342l212 -343 48 268c4,-10 8,-19 12,-29 58,-130 157,-242 241,-356 59,-81 117,-189 166,-277l258 -470 30 535c6,105 17,222 39,325 32,152 70,310 49,467 -2,10 -4,21 -6,31l203 -234 -32 460c-10,155 -38,283 -92,400l-47 308c-47,308 -146,520 -359,722l-37 139c-80,299 -201,497 -433,672l-52 132c-111,287 -252,470 -501,617l-64 125c-141,273 -301,439 -564,558l-77 117c-73,110 -147,200 -230,274 88,-25 183,-43 292,-56l138 -16c209,-221 410,-326 729,-399l136 -31c185,-242 373,-368 683,-476l132 -46c158,-261 332,-407 629,-548l127 -61c130,-278 288,-442 569,-617l121 -75c100,-293 240,-475 501,-682l237 -188c65,-129 156,-240 284,-362l323 -307 -63 433c26,-59 60,-115 103,-169 109,-135 263,-237 397,-346 45,-36 88,-80 129,-120 55,-54 109,-110 163,-166l369 -384 -107 522c-27,130 -51,277 -57,409 -9,188 -14,388 -86,564 -28,68 -65,128 -107,182l388 -304 -164 488c-61,180 -133,322 -234,444l-157 361c-153,352 -336,570 -654,742l-94 165c-189,331 -393,526 -726,660l-110 152c-222,306 -445,477 -789,573l-124 138c-253,280 -493,425 -844,483l-139 123c-281,252 -535,369 -890,389l-151 108c-334,239 -619,324 -1023,283 -126,-13 -269,-72 -406,-148l63 266 -140 42c-53,16 -107,32 -160,48 -66,19 -132,36 -198,54 -89,25 -180,47 -270,68 -245,57 -490,106 -739,142 -153,22 -306,42 -459,57 -171,16 -343,27 -515,33 -126,4 -252,6 -378,5 408,120 825,209 1252,270 133,-143 310,-322 473,-387 272,-108 470,-118 757,-45l98 24c221,-103 408,-124 669,-88l100 14c209,-127 391,-167 656,-159l102 3c194,-149 371,-210 636,-231l102 -8c179,-170 349,-249 611,-300l102 -20c161,-190 322,-288 579,-369l226 -71c87,-78 188,-136 320,-191l371 -155 -117 246c9,-6 18,-11 27,-17 123,-71 269,-105 403,-149 96,-31 205,-85 297,-128l489 -233 -293 455c-56,88 -116,190 -158,286 -62,142 -124,292 -232,407 -7,8 -15,15 -22,23l301 -73 -295 356c-98,119 -195,207 -308,271l-218 223c-218,223 -422,337 -712,377l-111 91c-240,197 -454,287 -744,294l-119 77c-257,169 -479,235 -766,210l-126 64c-274,139 -500,180 -783,124l-131 50c-286,109 -516,126 -791,39l-135 36c-325,85 -573,66 -871,-84 -175,-88 -346,-312 -456,-494 -872,-167 -1693,-442 -2482,-851 -38,-6 -76,-12 -113,-18 -217,-37 -433,-84 -647,-135 -220,-53 -438,-112 -655,-174 -110,-31 -220,-63 -330,-97 -110,-34 -220,-69 -330,-105 -430,-138 -866,-261 -1309,-353 -429,-90 -872,-149 -1311,-141 -395,6 -815,70 -1168,257 -161,86 -311,196 -436,330 -61,65 -116,135 -167,209 -48,74 -94,150 -131,230l-2 2 -1 3c-19,38 -35,79 -53,118 -15,40 -33,80 -47,121 -23,70 -36,145 -41,218 -11,152 8,306 52,451 41,136 104,266 186,382 74,105 164,198 267,275 133,99 283,171 442,217 188,-154 422,-249 708,-249 444,0 804,193 804,682 0,628 -589,1051 -1159,1167 -2,29 -3,58 -3,86 0,84 11,214 96,259 34,19 77,24 115,24 211,0 399,-152 547,-286l257 -232 0 347c0,217 -61,421 -219,576 -227,221 -581,268 -884,268 -559,0 -905,-423 -905,-961 0,-441 108,-972 365,-1365zm5685 1470c7,-48 17,-97 29,-145l261 -1235c-24,-8 -50,-12 -76,-12 -119,0 -236,184 -284,274 -119,220 -191,495 -224,742 -15,108 -23,218 -23,327 0,52 7,142 49,180 24,21 61,26 92,26 52,0 133,-98 176,-157zm5959 0c6,-48 16,-97 28,-145l261 -1235c-24,-8 -50,-12 -75,-12 -119,0 -237,184 -285,274 -119,220 -191,495 -224,742 -14,108 -22,218 -22,327 0,52 6,142 48,180 24,21 61,26 92,26 52,0 133,-98 177,-157zm2586 -7071c-1,1 -1,3 -2,5l2 -3 0 -2zm-812 687c0,1 0,1 0,2l0 -1 0 -1zm-3505 1057c-143,103 -302,165 -506,197 -194,31 -463,-52 -659,-135 -576,267 -1163,472 -1771,614 28,3 56,6 84,9 85,9 169,16 254,22 812,-1 1613,-101 2403,-287 52,-130 117,-285 195,-420z"/>
   <path class="fil2" d="M17030 5428c-210,368 -424,517 -733,624 -308,107 -838,-49 -838,-49 289,-353 541,-514 976,-539 228,-13 372,94 595,-36zm-15854 11762c4067,-3351 10170,-4308 15271,-3378 358,66 519,100 866,217 -342,1 -552,-20 -888,-48 -5119,-427 -10736,296 -14761,3766 -153,135 -387,119 -522,-35 -135,-153 -119,-387 34,-522zm1159 -4045c507,0 949,-142 949,-690 -208,188 -411,325 -650,325 -198,0 -365,-102 -365,-437 0,-61 5,-137 15,-218 482,-61 1147,-416 1147,-1035 0,-356 -233,-528 -650,-528 -279,0 -498,103 -669,265 -179,-42 -382,-121 -573,-264 -109,-81 -213,-185 -301,-309 -87,-124 -159,-268 -207,-427 -48,-158 -72,-331 -59,-506 6,-86 22,-175 49,-256 15,-43 34,-87 51,-131 19,-43 37,-87 58,-130 41,-86 91,-169 143,-250 55,-80 116,-156 183,-229 135,-142 295,-265 476,-360 362,-193 796,-269 1237,-275 444,-9 898,50 1345,144 449,93 892,218 1325,358 109,34 219,70 328,104 109,34 218,65 327,96 218,62 434,121 649,172 215,51 427,97 637,133 45,8 90,15 135,22 794,413 1617,693 2532,861 79,141 258,410 428,495 233,117 437,157 762,72 -328,-77 -302,-463 -683,-601l0 0c401,-87 377,-488 657,-579 -283,-71 -447,-47 -663,39 -156,63 -362,288 -471,407 -862,-115 -1647,-334 -2409,-671 111,15 221,29 330,40 202,20 399,34 590,41 190,6 374,3 551,-2 176,-7 345,-17 505,-32 160,-16 311,-36 452,-56 283,-42 526,-94 726,-140 99,-23 188,-44 265,-66 76,-21 141,-38 194,-54 104,-31 160,-48 160,-48 0,0 -57,11 -165,30 -53,11 -120,22 -198,35 -78,13 -167,27 -268,41 -201,29 -446,59 -728,82 -140,10 -290,19 -448,23 -158,6 -324,7 -497,4 -172,-5 -352,-12 -538,-28 -185,-15 -376,-35 -572,-63 -196,-28 -395,-64 -598,-107 -203,-42 -410,-90 -619,-146 -12,-3 -24,-6 -36,-10 -13,-7 -25,-14 -38,-21 10,7 21,13 31,20 -403,-109 -816,-242 -1235,-380 -438,-144 -891,-280 -1355,-374 -465,-93 -940,-153 -1415,-139 -237,7 -473,35 -703,89 -229,54 -452,136 -655,250 -204,112 -382,264 -530,432 -72,85 -137,174 -195,266 -55,93 -106,187 -147,284 -22,47 -39,97 -59,144 -16,49 -33,96 -47,146 -29,106 -42,208 -45,309 -4,202 32,394 94,567 123,348 356,614 602,773 123,81 250,137 370,176 73,23 144,40 212,53 -354,383 -475,1028 -475,1457 0,437 264,807 751,807zm13868 -6920l0 0c-235,104 -366,-17 -592,-30 -434,-24 -701,107 -1025,426 0,0 509,213 826,141 317,-72 545,-196 791,-537zm978 -1584l0 0c-432,75 -667,266 -917,649 0,0 545,96 841,-46 297,-142 495,-316 666,-709 -208,156 -364,67 -590,106zm-2851 2878l0 0c-251,49 -353,-98 -570,-159 -418,-117 -706,-46 -1090,195 0,0 451,318 775,316 325,-2 573,-74 885,-352zm2641 -3030l0 0c0,0 458,30 691,-112 233,-141 382,-299 495,-635 -464,363 -853,48 -1186,747zm-2513 2881l0 0c322,-37 562,-135 842,-446 -244,77 -361,-58 -584,-96 -428,-71 -707,30 -1063,312 0,0 483,267 805,230zm-827 -1144l0 0c-354,81 -521,201 -711,419 -190,219 -310,743 -310,743 955,-114 597,-643 1021,-1162zm860 245l0 0c910,-317 446,-759 751,-1357 -329,157 -468,310 -607,565 -139,254 -144,792 -144,792zm-688 -262l0 0c-165,237 -228,772 -228,772 938,-217 524,-705 890,-1266 -343,119 -497,256 -662,494zm2150 -1781l0 0c-312,194 -434,362 -546,631 -111,269 -58,805 -58,805 873,-416 363,-806 604,-1436zm1168 -1326l0 0c-228,217 -303,380 -351,623 -49,243 87,671 87,671 631,-482 182,-736 264,-1294zm-531 559l0 0c-291,230 -395,412 -478,693 -83,282 27,810 27,810 826,-513 277,-847 451,-1503zm1133 44l0 0c373,-216 377,-473 395,-850 8,-180 60,-433 60,-433 0,0 -213,223 -306,298 -288,234 -490,329 -524,743 -19,238 36,350 36,350 0,0 125,16 339,-108zm-3894 5559l0 0c0,0 353,269 615,277 262,8 466,-42 729,-258 -561,56 -712,-402 -1344,-19zm-832 214l0 0c0,0 320,305 579,342 259,37 465,9 748,-175 -561,-9 -659,-480 -1327,-167zm1640 -518l0 0c0,0 382,229 645,207 263,-22 462,-95 702,-341 -553,121 -758,-316 -1347,134zm-3346 669l0 0c0,0 248,367 492,459 244,91 451,109 764,-11 -545,-130 -537,-611 -1256,-448zm4107 -1067l0 0c0,0 335,154 550,114 215,-39 372,-114 554,-334 -456,110 -671,-211 -1104,220zm-3250 1037l0 0c0,0 286,339 538,404 253,64 460,59 760,-93 -556,-71 -601,-550 -1298,-311zm-408 -581l0 0c-205,109 -446,468 -446,468 732,195 652,-296 1100,-579 -289,-40 -449,1 -654,111zm2181 -483l0 0c-292,23 -439,98 -617,249 -177,151 -335,554 -335,554 757,32 574,-431 952,-803zm-755 228l0 0c-291,-9 -446,49 -638,180 -192,131 -392,514 -392,514 747,115 616,-365 1030,-694zm1486 -539l0 0c-290,56 -430,147 -591,317 -161,170 -275,587 -275,587 759,-50 527,-492 866,-904zm1256 -660l0 0c-233,98 -336,199 -442,367 -106,169 -127,529 -127,529 594,-164 379,-497 569,-896zm-559 267l0 0c-284,90 -414,196 -557,384 -143,187 -212,615 -212,615 753,-135 474,-550 769,-999zm626 70l0 0c-83,172 -74,272 -74,272 0,0 90,48 286,17 341,-55 418,-247 540,-525 58,-132 169,-307 169,-307 0,0 -223,106 -315,136 -283,93 -462,106 -606,407zm-13165 2975l16 -2 -13 0c44,-28 89,-43 136,-43 152,0 178,177 178,284l0 0c-5,360 -335,761 -802,766 88,-397 265,-860 485,-1005zm10296 -6096l0 0c0,0 443,13 661,-133 218,-147 354,-306 442,-635 -423,372 -813,88 -1103,768zm-552 658l0 0c0,0 439,62 670,-59 232,-121 384,-263 506,-578 -461,320 -816,-6 -1176,637zm1032 -1376l0 0c0,0 443,-37 644,-208 201,-171 320,-346 372,-686 -379,420 -801,185 -1016,894zm-2329 2493l0 0c0,0 415,155 666,87 252,-68 431,-174 616,-454 -519,212 -793,-184 -1282,367zm2714 -3260l0 0c0,0 362,-70 514,-228 152,-157 235,-310 255,-594 -307,355 -668,220 -769,822zm-800 2233l0 0c-493,267 -809,-97 -1235,504 0,0 429,109 672,14 243,-94 409,-220 563,-518zm-1439 -201l0 0c-258,135 -364,262 -467,470 -103,209 -89,641 -89,641 708,-268 356,-620 556,-1111zm1024 -1193l0 0c-224,189 -300,336 -356,562 -56,226 50,645 50,645 635,-415 215,-684 306,-1207zm-481 625l0 0c-242,163 -333,300 -413,519 -80,218 -19,646 -19,646 675,-343 287,-656 432,-1165zm893 -1303l0 0c-203,214 -263,369 -295,601 -32,232 119,637 119,637 588,-483 141,-706 176,-1238zm696 -210l0 0c387,-479 18,-624 -60,-1059 -133,215 -157,357 -145,555 12,199 205,504 205,504zm-358 -517l0 0c-179,239 -222,401 -229,637 -7,235 186,623 186,623 533,-548 64,-723 43,-1260zm647 -44l0 0c0,0 102,-13 242,-152 246,-244 197,-445 133,-742 -30,-141 -41,-348 -41,-348 0,0 -120,216 -177,294 -176,241 -314,355 -255,684 33,188 98,264 98,264zm-12619 4704l0 0c240,-140 525,-251 841,-315 315,-64 657,-98 1013,-96l66 1 32 0 34 1 69 1 66 4c88,3 179,11 268,20 181,20 362,51 544,90 365,76 731,189 1098,308 366,121 734,247 1103,360 368,112 737,209 1099,279 362,71 718,113 1055,134 338,22 658,13 951,-5 294,-19 561,-57 796,-96 187,-32 353,-68 496,-102 199,-27 399,-60 600,-98 156,129 483,361 718,385 324,32 579,-12 919,-255 -416,15 -638,-388 -1061,-396 357,-255 226,-674 506,-965 -360,43 -540,144 -753,341 -154,142 -294,495 -367,682 -851,207 -1684,309 -2523,311 -87,-7 -174,-15 -263,-24 -306,-31 -625,-84 -950,-157 920,-122 1780,-378 2651,-789 147,69 449,183 636,153 258,-41 447,-128 661,-386 -310,129 -514,-201 -904,-90 275,-305 21,-616 195,-853 -271,107 -390,222 -515,418 -90,142 -126,445 -145,605 -869,463 -1734,760 -2673,921 -341,-80 -689,-181 -1041,-295 -360,-117 -724,-249 -1095,-371 -370,-124 -747,-239 -1131,-318 -191,-40 -384,-69 -576,-89 -97,-8 -191,-19 -289,-22l-72 -7 -69 0 -34 0 -37 7 -70 7c-186,6 -369,18 -547,42 -179,23 -353,54 -520,99 -333,88 -640,219 -889,394 -250,174 -444,380 -574,587 -133,205 -213,402 -263,566 -51,165 -76,297 -90,388 -8,45 -11,79 -15,103 -3,23 -4,35 -4,35 0,0 13,-47 39,-134 26,-87 68,-213 135,-367 33,-77 76,-160 126,-247 49,-87 109,-177 180,-267 142,-180 332,-357 573,-498zm15697 5289c-41,15 -96,15 -132,15 -152,0 -193,-66 -193,-152 0,-66 26,-142 41,-208l208 -969c10,-36 10,-77 10,-112 0,-335 -299,-645 -584,-645 -223,0 -456,122 -664,274l274 -1289 -752 102 -617 2896c-84,55 -166,93 -240,93 -203,0 -254,-81 -254,-193 0,-45 10,-101 20,-157l366 -1726 -731 0 -31 132c-91,-76 -218,-127 -340,-127 -1015,0 -1329,1046 -1329,1919 0,299 142,645 629,645 310,0 538,-209 690,-417 66,264 289,386 619,386 162,0 353,-112 538,-261l-55 261 730 0 437 -2045c101,-76 198,-112 320,-112 157,0 228,152 228,315 0,40 -5,81 -10,116l-193 914c-20,86 -30,173 -30,254 0,320 157,558 517,558 173,0 386,-30 528,-467zm-3578 -1781c71,0 167,20 249,91l-285 1345c-15,61 -25,117 -30,167 -96,143 -208,254 -325,254 -127,0 -294,-56 -294,-360 0,-690 304,-1497 685,-1497zm-1680 -391c-168,0 -289,142 -289,249 0,142 66,284 213,284 30,0 76,-10 106,-21 0,554 -340,1665 -837,1665 -147,0 -193,-66 -193,-162 0,-56 10,-117 25,-188l366 -1726 -731 0 -365 1726c-16,61 -26,122 -26,173 -122,101 -248,177 -355,177 -203,0 -254,-81 -254,-193 0,-45 10,-101 21,-157l365 -1726 -731 0 -365 1726c-19,87 -29,166 -30,237 -95,66 -187,113 -270,113 -203,0 -254,-81 -254,-193 0,-45 11,-101 21,-157l365 -1726 -731 0 -30 132c-91,-76 -218,-127 -340,-127 -1015,0 -1330,1046 -1330,1919 0,299 142,645 629,645 310,0 538,-209 691,-417 66,264 289,386 619,386 196,0 435,-165 655,-360 71,246 292,360 609,360 213,0 487,-203 725,-421 51,289 274,421 620,421 1025,0 1426,-1391 1426,-2182 0,-264 -107,-457 -325,-457l0 0zm-4279 391c71,0 168,20 249,91l-284 1345c-15,61 -25,117 -31,167 -96,143 -208,254 -324,254 -127,0 -295,-56 -295,-360 0,-690 305,-1497 685,-1497zm-1411 -949c0,-569 -583,-609 -852,-609 -604,0 -1208,411 -1208,944 0,756 1096,964 1096,1918 0,376 -157,726 -558,726 -239,0 -503,-147 -503,-487 0,-351 183,-523 594,-559 -40,-182 -182,-259 -411,-259 -391,0 -746,254 -746,731 0,731 716,817 1122,817 817,0 1345,-461 1345,-1177 0,-1132 -1142,-1178 -1142,-1974 0,-280 193,-442 472,-442 269,0 370,162 370,340 0,168 -91,355 -228,437 66,76 147,106 228,106 264,0 421,-223 421,-512l0 0z"/>
  </g>
 </g>
</svg>
